[Header]
FileType HTR
DataType HTRS
FileVersion 1
NumSegments 28
NumFrames 4
DataFrameRate 24
EulerRotationOrder ZYX
CalibrationUnits mm
RotationUnits Degrees
GlobalAxisofGravity Y
BoneLengthAxis Y
ScaleFactor 1.0
[SegmentNames&Hierarchy]
waist	GLOBAL
chest	waist
head	chest
joint2	chest
right_shoulder1	joint2
right_elbow1	right_shoulder1
right_wrist1	right_elbow1
right_hand1	right_wrist1
right_finger3	right_hand1
right_finger4	right_hand1
right_finger5	right_hand1
joint3	chest
right_shoulder2	joint3
right_elbow2	right_shoulder2
right_wrist2	right_elbow2
right_hand2	right_wrist2
right_finger6	right_hand2
right_finger7	right_hand2
right_finger8	right_hand2
Center_pelvis	waist
left_pelvs	Center_pelvis
left_leg	left_pelvs
left_knee	left_leg
left_foot	left_knee
right_pelvis	Center_pelvis
right_leg	right_pelvis
right_knee	right_leg
right_foot	right_knee
[BasePosition]
waist	0	0	0	179.9999991	0	91.33221985	1
chest	0	0	0	-2.307808268e-010	-1.984983424e-008	1.332219854	1
head	0	0	0	180	-1.481061187e-024	90	1
joint2	0	0	0	4.615476202e-010	-1.707085745e-006	90	1
right_shoulder1	0	0	0	1.916575325e-008	-1.983803253e-008	-88.02506599	1
right_elbow1	0	0	0	-180	-1.948815659e-008	-12.92899665	1
right_wrist1	0	0	0	3.256551172e-010	1.942478841e-008	1.920938916	1
right_hand1	0	0	0	136.2194085	85.17676588	-133.4832578	1
right_finger3	0	0	0	154.4596717	79.84057755	147.6247455	1
right_finger4	0	0	0	154.4596717	79.84057755	147.6247455	1
right_finger5	0	0	0	154.4596717	79.84057755	147.6247455	1
joint3	0	0	0	-180	-1.89575832e-022	90	1
right_shoulder2	0	0	0	6.774897105e-015	-7.012540931e-015	-88.02506599	1
right_elbow2	0	0	0	-180	-6.888863384e-015	-12.92899665	1
right_wrist2	0	0	0	-1.240805042e-012	-7.401196581e-011	1.920938916	1
right_hand2	0	0	0	136.2194085	85.17676588	-133.4832578	1
right_finger6	0	0	0	154.4596717	79.84057755	147.6247455	1
right_finger7	0	0	0	154.4596717	79.84057755	147.6247455	1
right_finger8	0	0	0	154.4596717	79.84057755	147.6247455	1
Center_pelvis	0	0	0	-180	-8.537716493e-007	89.87586122	1
left_pelvs	0	0	0	0	0	-1.456358634	1
left_leg	0	0	0	179.9999991	0	88.69804733	1
left_knee	0	0	0	-180	-7.863991589e-009	-2.076172838	1
left_foot	0	0	0	179.9999985	-3.055580289e-010	-90.77422016	1
right_pelvis	0	0	0	0	0	-2.39554958	1
right_leg	0	0	0	0	0	-87.75885638	1
right_knee	0	0	0	179.9999991	3.702652968e-022	-2.076172838	1
right_foot	0	0	0	180	-7.405305937e-025	-90.77422016	1
[waist]
39	0.1190654486	-8.587053299	-2.988436222	0.758402884	-5.16996336	0.6745278835	1.0
40	0.1419276595	-7.633862019	-2.424682379	0.6153671145	-4.122040272	0.5562271476	1.0
41	0.1654056609	-6.654997349	-1.866201878	0.4736532569	-3.118777514	0.4347398281	1.0
42	0.1891484857	-5.665091515	-1.319003224	0.3347880542	-2.16683507	0.3118822277	1.0
[chest]
39	22.94147682	-0.2459667474	-4.307605267	8.815660477	35.22620392	4.395921707	1.0
40	23.63584709	-0.2028283477	-2.951249838	7.269542694	30.3829174	3.624951124	1.0
41	24.34891891	-0.1585280001	-1.55836165	5.681779861	25.40917397	2.833214521	1.0
42	25.07003403	-0.1137279421	-0.1497612	4.076107025	20.37932777	2.032547235	1.0
[head]
39	20.62318993	0.1433748305	1.492195129	-4.727923393	1.36303103	2.141592741	1.0
40	20.62318993	0.1433748305	1.492195129	-3.982468843	1.257132769	1.67519033	1.0
41	20.62318993	0.1433748305	1.492195129	-3.300909042	1.16031146	1.248764634	1.0
42	20.62318993	0.1433748305	1.492195129	-2.715193748	1.077105641	0.8823052049	1.0
[joint2]
39	-1.657010078	17.01290512	0.01287616603	15.20328045	-7.113224506	18.34953499	1.0
40	-1.657010078	17.01290512	0.01287616603	9.996701241	-5.269057274	13.59225368	1.0
41	-1.657010078	17.01290512	0.01287616603	5.236394882	-3.582958221	9.242731094	1.0
42	-1.657010078	17.01290512	0.01287616603	1.14550674	-2.133967161	5.504860401	1.0
[right_shoulder1]
39	14.91590023	0.6211000085	0.9477797747	9.870466232	-30.19977188	-55.05746841	1.0
40	14.91590023	0.6211000085	0.9477797747	7.311459064	-26.5185051	-42.08628464	1.0
41	14.91590023	0.6211000085	0.9477797747	4.971791744	-23.152771	-30.2269001	1.0
42	14.91590023	0.6211000085	0.9477797747	2.961139917	-20.26034355	-20.0352459	1.0
[right_elbow1]
39	-13.64346027	1.083028078	-0.5017899871	-2.478555202	26.09366608	12.75639248	1.0
40	-13.64346027	1.083028078	-0.5017899871	-1.803376317	26.72535706	9.449183464	1.0
41	-13.64346027	1.083028078	-0.5017899871	-1.206740975	27.30290222	6.425443649	1.0
42	-13.64346027	1.083028078	-0.5017899871	-0.7083681226	27.79923248	3.826917648	1.0
[right_wrist1]
39	-11.07325459	0.004849368241	0.6145500541	3.063487291	28.22865677	11.29026127	1.0
40	-11.07325459	0.004849368241	0.6145500541	2.269250631	28.69213486	8.363160133	1.0
41	-11.07325459	0.004849368241	0.6145500541	1.543090224	29.1158905	5.686947346	1.0
42	-11.07325459	0.004849368241	0.6145500541	0.9190461636	29.48005295	3.387078285	1.0
[right_hand1]
39	-7.870647907	-0.6475095749	0.1588415354	13.610322	25.63029671	20.05943108	1.0
40	-7.870647907	-0.6475095749	0.1588415354	13.610322	25.63029671	20.05943108	1.0
41	-7.870647907	-0.6475095749	0.1588415354	13.610322	25.63029671	20.05943108	1.0
42	-7.870647907	-0.6475095749	0.1588415354	13.610322	25.63029671	20.05943108	1.0
[right_finger3]
39	10.07661057	3.347557783	-1.489186764	-84.28975677	13.1826582	87.76701355	1.0
40	10.07661057	3.347557783	-1.489186764	-84.28975677	13.1826582	87.76701355	1.0
41	10.07661057	3.347557783	-1.489186764	-84.28975677	13.1826582	87.76701355	1.0
42	10.07661057	3.347557783	-1.489186764	-84.28975677	13.1826582	87.76701355	1.0
[right_finger4]
39	-1.201135993	3.376283169	11.27149582	-190.2575378	16.2514534	124.4265747	1.0
40	-1.201135993	3.376283169	11.27149582	-190.2575378	16.2514534	124.4265747	1.0
41	-1.201135993	3.376283169	11.27149582	-190.2575378	16.2514534	124.4265747	1.0
42	-1.201135993	3.376283169	11.27149582	-190.2575378	16.2514534	124.4265747	1.0
[right_finger5]
39	-6.853637218	4.493112087	-5.936321735	34.39846039	4.028532028	79.4876709	1.0
40	-6.853637218	4.493112087	-5.936321735	34.39846039	4.028532028	79.4876709	1.0
41	-6.853637218	4.493112087	-5.936321735	34.39846039	4.028532028	79.4876709	1.0
42	-6.853637218	4.493112087	-5.936321735	34.39846039	4.028532028	79.4876709	1.0
[joint3]
39	-1.657010078	-17.01289368	0.01287565939	6.92587328	21.20651436	16.74603462	1.0
40	-1.657010078	-17.01289368	0.01287565939	4.392969131	15.70853615	12.40447617	1.0
41	-1.657010078	-17.01289368	0.01287565939	2.077166319	10.68180275	8.435041428	1.0
42	-1.657010078	-17.01289368	0.01287565939	0.08702351153	6.361954689	5.02380991	1.0
[right_shoulder2]
39	-14.91590023	-0.6211000085	-0.9477797747	23.02178001	-6.683608055	-54.01415634	1.0
40	-14.91590023	-0.6211000085	-0.9477797747	17.05317688	-4.950821877	-42.3598938	1.0
41	-14.91590023	-0.6211000085	-0.9477797747	11.59615898	-3.36655879	-31.70454597	1.0
42	-14.91590023	-0.6211000085	-0.9477797747	6.906533718	-2.005082369	-22.54761124	1.0
[right_elbow2]
39	13.06082726	-0.03707668185	1.483248353	-2.322614431	41.01443863	7.647545815	1.0
40	13.06082726	-0.03707668185	1.483248353	1.050536752	39.35910034	10.42814541	1.0
41	13.06082726	-0.03707668185	1.483248353	4.13456583	37.8456459	12.97041225	1.0
42	13.06082726	-0.03707668185	1.483248353	6.784903049	36.54502106	15.1551733	1.0
[right_wrist2]
39	11.37348366	-5.659013271	-0.5602906942	-1.751616478	24.96289063	-25.85848808	1.0
40	11.37348366	-5.659013271	-0.5602906942	-1.779969692	27.19725227	-25.93082237	1.0
41	11.37348366	-5.659013271	-0.5602906942	-1.805892587	29.24010086	-25.99696159	1.0
42	11.37348366	-5.659013271	-0.5602906942	-1.828170061	30.99567604	-26.05379677	1.0
[right_hand2]
39	8.313048363	0.02588133886	-0.2132965624	18.71133041	22.36689186	29.74986458	1.0
40	8.313048363	0.02588133886	-0.2132965624	18.71133041	22.36689186	29.74986458	1.0
41	8.313048363	0.02588133886	-0.2132965624	18.71133041	22.36689186	29.74986458	1.0
42	8.313048363	0.02588133886	-0.2132965624	18.71133041	22.36689186	29.74986458	1.0
[right_finger6]
39	-10.07661057	-3.347557783	1.489186764	-83.6856308	28.25859642	89.45962524	1.0
40	-10.07661057	-3.347557783	1.489186764	-83.6856308	28.25859642	89.45962524	1.0
41	-10.07661057	-3.347557783	1.489186764	-83.6856308	28.25859642	89.45962524	1.0
42	-10.07661057	-3.347557783	1.489186764	-83.6856308	28.25859642	89.45962524	1.0
[right_finger7]
39	1.201135993	-3.376283169	-11.27149582	-196.815567	9.285179138	95.4122467	1.0
40	1.201135993	-3.376283169	-11.27149582	-196.815567	9.285179138	95.4122467	1.0
41	1.201135993	-3.376283169	-11.27149582	-196.815567	9.285179138	95.4122467	1.0
42	1.201135993	-3.376283169	-11.27149582	-196.815567	9.285179138	95.4122467	1.0
[right_finger8]
39	6.853637218	-4.493112087	5.936321735	33.30503464	-9.988982201	100.1356735	1.0
40	6.853637218	-4.493112087	5.936321735	33.30503464	-9.988982201	100.1356735	1.0
41	6.853637218	-4.493112087	5.936321735	33.30503464	-9.988982201	100.1356735	1.0
42	6.853637218	-4.493112087	5.936321735	33.30503464	-9.988982201	100.1356735	1.0
[Center_pelvis]
39	-5.616972446	-0.3766000271	2.04698658	-3.100006342	0.1025902852	0.312410742	1.0
40	-5.616972446	-0.3766000271	2.04698658	-2.556317568	0.08459768444	0.2240366042	1.0
41	-5.616972446	-0.3766000271	2.04698658	-1.99798429	0.06612044573	0.1506171077	1.0
42	-5.616972446	-0.3766000271	2.04698658	-1.433353424	0.04743478447	0.09126713127	1.0
[left_pelvs]
39	11.08986378	-0.01586683653	-0.09214995801	-22.14843369	0.6454344988	0	1.0
40	11.08986378	-0.01586683653	-0.09214995801	-20.23226547	0.4780997336	0	1.0
41	11.08986378	-0.01586683653	-0.09214995801	-18.48033714	0.3251077831	0	1.0
42	11.08986378	-0.01586683653	-0.09214995801	-16.97477341	0.1936303228	0	1.0
[left_leg]
39	8.450808053e-008	-5.682914734	0.1433229595	1.794204593	5.700157642	0	1.0
40	8.450808053e-008	-5.682914734	0.1061651856	1.329040766	6.87458849	0	1.0
41	8.450808053e-008	-5.682914734	0.07219231129	0.9037477374	7.948356628	0	1.0
42	8.450808053e-008	-5.682914734	0.04299688339	0.538261354	8.871125221	0	1.0
[left_knee]
39	-10.69747543	0.03457061574	-5.936355851e-010	-2.928405046	-27.29329872	3.366198778	1.0
40	-10.69747543	0.03457061574	-4.217237115e-010	-2.169189692	-21.74458313	2.493481398	1.0
41	-10.69747543	0.03457061574	-2.759687479e-010	-1.47504878	-16.6714592	1.69556725	1.0
42	-10.69747543	0.03457061574	-1.58644084e-010	-0.878521502	-12.3117466	1.009859562	1.0
[left_foot]
39	-14.54718971	-0.01193539705	1.933258442e-009	0	0	0	1.0
40	-14.54718971	-0.01193539705	1.933258442e-009	0	0	0	1.0
41	-14.54718971	-0.01193539705	1.933258442e-009	0	0	0	1.0
42	-14.54718971	-0.01193539705	1.933258442e-009	0	0	0	1.0
[right_pelvis]
39	-10.5868988	0.4465443194	0.2088862956	-33.58364105	0	0	1.0
40	-10.5868988	0.4465443194	0.2088862956	-34.22320938	0	0	1.0
41	-10.5868988	0.4465443194	0.2088862956	-34.73389053	0	0	1.0
42	-10.5868988	0.4465443194	0.2088862956	-35.12129593	0	0	1.0
[right_leg]
39	0.09169664979	-5.593489647	0.005500036292	0	5.800970554	0	1.0
40	0.09169664979	-5.593489647	0.003907272127	0	9.643565178	0	1.0
41	0.09169664979	-5.593489647	0.002556852065	0	13.15680122	0	1.0
42	0.09169664979	-5.593489647	0.001469838317	0	16.17598724	0	1.0
[right_knee]
39	10.69750977	-0.03459574655	-4.112246491e-016	4.623256207	-36.13788223	0	1.0
40	10.69750977	-0.03459574655	-2.921374283e-016	3.364016533	-31.70466042	0	1.0
41	10.69750977	-0.03459574655	-1.911697511e-016	2.25115943	-27.6514225	0	1.0
42	10.69750977	-0.03459574655	-1.098963045e-016	1.321508288	-24.16817093	0	1.0
[right_foot]
39	14.54718685	0.01191107463	1.546852924e-011	0	0	0	1.0
40	14.54718685	0.01191107463	1.098897449e-011	0	0	0	1.0
41	14.54718685	0.01191107463	7.190996063e-012	0	0	0	1.0
42	14.54718685	0.01191107463	4.133833467e-012	0	0	0	1.0
[EndOfFile]
